# xmcd
#
# Track frame offsets: 
#        150
#        15041
#        32316
#        55731
#        77151
#        94339
#        111187
#        127898
#        145945
#        163086
#        180413
#
# Disc length: 2685 seconds
#
# Revision: 1
# Processed by: cddbd v1.5.2PL0 Copyright (c) Steve Scherf et al.
# Submitted via: ExactAudioCopy v1.3
#
DISCID=7b0a7b0b
DTITLE=Kenny Neal - Bloodline
DYEAR=2016
DGENRE=Blues
TTITLE0=Ain't Gon' Let the Blues Die
TTITLE1=Bloodline
TTITLE2=Plain Old Common Sense
TTITLE3=Funny How Time Slips Away
TTITLE4=Keep on Moving
TTITLE5=I Go by Feel
TTITLE6=I'm so Happy
TTITLE7=Blues Mobile
TTITLE8=I Can't Wait
TTITLE9=Real Friend
TTITLE10=Thank You BB King
EXTD=
EXTT0=
EXTT1=
EXTT2=
EXTT3=
EXTT4=
EXTT5=
EXTT6=
EXTT7=
EXTT8=
EXTT9=
EXTT10=
PLAYORDER=
